<mxfile host="app.diagrams.net" modified="2023-11-05T18:19:34.664Z" agent="Mozilla/5.0 (Macintosh; Intel Mac OS X 10_15_7) AppleWebKit/605.1.15 (KHTML, like Gecko) Version/16.6 Safari/605.1.15" version="22.0.8" etag="6IeCOvb0M7YvILtvqCjh" type="github">
  <diagram name="Page-1" id="6EmfbEWbo6J8v6ZWK6F8">
    <mxGraphModel>
      <root>
        <mxCell id="0" />
        <mxCell id="1" parent="0" />
      </root>
    </mxGraphModel>
  </diagram>
</mxfile>
